<svg xmlns="http://www.w3.org/2000/svg" width="1544" height="500" viewBox="0 0 1544 500">
  <defs>
    <linearGradient id="background" x1="60" y1="30" x2="1490" y2="470" gradientUnits="userSpaceOnUse">
      <stop offset="0" stop-color="#081321"/>
      <stop offset="0.62" stop-color="#111a31"/>
      <stop offset="1" stop-color="#32143d"/>
    </linearGradient>
    <linearGradient id="brand" x1="64" y1="54" x2="342" y2="354" gradientUnits="userSpaceOnUse">
      <stop offset="0" stop-color="#ff008b"/>
      <stop offset="1" stop-color="#a744ff"/>
    </linearGradient>
    <linearGradient id="accent" x1="540" y1="0" x2="1180" y2="0" gradientUnits="userSpaceOnUse">
      <stop offset="0" stop-color="#ff39a4"/>
      <stop offset="1" stop-color="#bc72ff"/>
    </linearGradient>
    <filter id="shadow" x="-40%" y="-40%" width="180%" height="180%">
      <feDropShadow dx="0" dy="20" stdDeviation="24" flood-color="#000" flood-opacity=".34"/>
    </filter>
  </defs>

  <rect width="1544" height="500" fill="url(#background)"/>
  <circle cx="1412" cy="-12" r="265" fill="none" stroke="#ff43aa" stroke-opacity=".12" stroke-width="2"/>
  <circle cx="1412" cy="-12" r="190" fill="none" stroke="#c072ff" stroke-opacity=".12" stroke-width="2"/>
  <path d="M1180 500c76-146 199-223 364-230v230Z" fill="#ff008b" fill-opacity=".055"/>
  <path d="M0 404C210 335 382 349 516 500H0Z" fill="#a744ff" fill-opacity=".055"/>

  <g transform="translate(105 72) rotate(-5 164 164)" filter="url(#shadow)">
    <rect width="328" height="328" rx="74" fill="url(#brand)"/>
    <circle cx="164" cy="164" r="78" fill="none" stroke="#fff" stroke-width="16"/>
    <path d="m118 165 31 31 64-68" fill="none" stroke="#fff" stroke-width="18" stroke-linecap="round" stroke-linejoin="round"/>
  </g>

  <g fill="#fff" font-family="-apple-system, BlinkMacSystemFont, 'Segoe UI', sans-serif">
    <text x="530" y="115" fill="#ff63b5" font-size="23" font-weight="700" letter-spacing="4">OFFICIAL WORDPRESS PLUGIN</text>
    <text x="526" y="214" font-size="70" font-weight="760" letter-spacing="-2">StudioCount Bookings</text>
    <text x="530" y="280" fill="#cbd3e1" font-size="31" font-weight="450">Add your classes and products to WordPress.</text>
  </g>

  <g transform="translate(530 330)">
    <rect width="180" height="54" rx="27" fill="#fff" fill-opacity=".09" stroke="#fff" stroke-opacity=".14"/>
    <text x="90" y="35" text-anchor="middle" fill="#fff" font-family="-apple-system, BlinkMacSystemFont, 'Segoe UI', sans-serif" font-size="21" font-weight="650">Classes</text>
    <rect x="196" width="190" height="54" rx="27" fill="#fff" fill-opacity=".09" stroke="#fff" stroke-opacity=".14"/>
    <text x="291" y="35" text-anchor="middle" fill="#fff" font-family="-apple-system, BlinkMacSystemFont, 'Segoe UI', sans-serif" font-size="21" font-weight="650">Products</text>
    <rect x="402" width="210" height="54" rx="27" fill="url(#accent)"/>
    <text x="507" y="35" text-anchor="middle" fill="#fff" font-family="-apple-system, BlinkMacSystemFont, 'Segoe UI', sans-serif" font-size="21" font-weight="700">Online booking</text>
  </g>
</svg>
